<svg xmlns="http://www.w3.org/2000/svg" width="200" height="200" class="icon" viewBox="0 0 1024 1024"><path fill="currentColor" d="M639.5 480zm-1.1 0h1.6zm0 0h1.6zm-119.1 8.8c46.2-39.4 72.8-97.2 72.7-157.9 0-114.9-93.1-208-208-208s-208 93.1-208 208c-.1 60.7 26.5 118.5 72.7 158C139.6 539.8 64 650.5 64 778.9c0 27.1 3.4 54 10.2 80.3.4 1.4.8 2.9 1.2 4.3 6.1 20.9 28 33 49.1 27.1 21.1-5.9 33.5-27.7 27.8-48.9-.3-1-.5-1.9-.8-2.9-5-19.6-7.5-39.7-7.5-59.9 0-132.5 107.4-240 240-240s240 107.4 240 240c0 20.2-2.5 40.3-7.5 59.9-.3 1.1-.6 2.1-.9 3.2-5.9 21.2 6.6 43.3 27.9 49.2 21.3 5.9 43.3-6.6 49.2-27.9.4-1.3.7-2.6 1.1-4C700.6 833 704 806 704 778.9c0-128.4-75.6-239.1-184.7-290.1zM384 458.9c-70.7 0-128-57.3-128-128s57.3-128 128-128 128 57.3 128 128-57.3 128-128 128z"/><path fill="currentColor" d="M775.3 493.9A207.5 207.5 0 0 0 848 336c0-114.1-91.8-206.7-205.6-208h-4.9a40.1 40.1 0 0 0-36.8 48.3c.4 1.4.8 2.8 1.2 4.3a40 40 0 0 0 36.6 27.4h2.8a128 128 0 0 1 .8 256c-.7 0-1.4-.1-2.1-.1s-1.3 0-2 .1l-.9.1a40.1 40.1 0 0 0-35.3 27.8c-.3 1.1-.6 2.1-.8 3.2a40 40 0 0 0 37.4 49h2.2C772.9 544.3 880 651.6 880 784a240.3 240.3 0 0 1-7.5 59.9c-.3 1.1-.6 2.1-.8 3.2a40 40 0 0 0 77.1 21.4c.4-1.3.7-2.6 1.1-4A320.3 320.3 0 0 0 960 784c0-128.4-75.6-239.1-184.7-290.1z"/></svg>