<svg xmlns="http://www.w3.org/2000/svg" width="200" height="200" class="icon" viewBox="0 0 1024 1024"><path fill="currentColor" d="m357.1 86.3-41.9-7.8c-5.5-1.1-11.4-1.6-17.5-1.6-46 0-85.5 32.8-93.8 78L78.4 826.4C68.8 878.1 103 928 154.7 937.8l41.9 7.8c5.5 1.1 11.4 1.6 17.5 1.6 46 0 85.5-32.8 93.8-78l125.4-671.7c9.8-51.7-24.5-101.6-76.2-111.2zm14.8 99.8L246.5 857.8c-3.2 16.9-19.9 30.1-38.3 26.3l-42-7.8c-8.6-1.6-16.1-6.5-21.1-13.7-5-7.3-6.8-16-5.2-24.6l125.4-671.7c2.8-15 17-26.8 32.4-26.8 2 0 3.9.1 5.9.6l42.1 7.9c8.5 1.5 15.9 6.4 21 13.7 4.9 7.2 6.8 15.9 5.2 24.4zm182.6 230.8H512c-17.3 0-31.3 14.1-31.3 31.3 0 17.3 14.1 31.3 31.3 31.3h42.5c17.3 0 31.3-14 31.3-31.4-.1-17.1-14.2-31.2-31.3-31.2zm255.1-107.4h42.5c17.3 0 31.3-14 31.3-31.3s-14-31.3-31.3-31.3h-42.5c-17.3 0-31.3 14.1-31.3 31.3 0 17.3 14.1 31.3 31.3 31.3zm-255.1-62.6H512c-17.3 0-31.3 14.1-31.3 31.3 0 17.3 14.1 31.3 31.3 31.3h42.5c17.3 0 31.3-14 31.3-31.4-.1-17.2-14.2-31.2-31.3-31.2zm0 85H512c-17.3 0-31.3 14-31.3 31.3s14.1 31.3 31.3 31.3h42.5c17.3 0 31.3-14.1 31.3-31.4-.1-17.2-14.2-31.2-31.3-31.2zm297.7 0h-42.5c-17.3 0-31.3 14-31.3 31.3s14 31.3 31.3 31.3h42.5c17.3 0 31.3-14.1 31.3-31.3 0-17.2-14.1-31.3-31.3-31.3zm0 85h-42.5c-17.3 0-31.3 14.1-31.3 31.3 0 17.3 14 31.3 31.3 31.3h42.5c17.3 0 31.3-14 31.3-31.3 0-17.2-14.1-31.3-31.3-31.3z"/><path fill="currentColor" stroke="currentColor" d="m309.2 337-41.8-7.8c-8.2-1.4-16.5.2-23.4 5-6.9 4.7-11.5 11.8-13 20.1-1.5 8.2.2 16.5 4.9 23.4 4.7 6.9 11.8 11.5 20.1 13l41.8 7.8c1.9.3 3.8.5 5.7.5 14.8 0 27.9-10.5 30.8-25.5 3-17-8.2-33.3-25.1-36.5zm-15.7 83.6-41.8-7.8c-8.2-1.4-16.6.2-23.4 5-6.9 4.7-11.5 11.8-13 20.1-1.5 8.2.2 16.6 5 23.4 4.7 6.9 11.8 11.5 20.1 13l41.8 7.8c2 .4 3.9.5 5.9.5 6.3 0 12.3-1.9 17.6-5.5 6.9-4.7 11.5-11.8 13-20.1 2.9-16.9-8.3-33.2-25.2-36.4zm261-343.8H512c-52.4 0-95.1 42.6-95.1 95.1v680.3c0 52.4 42.6 95.1 95.1 95.1h42.5c52.4 0 95.1-42.6 95.1-95.1V171.9c0-52.5-42.7-95.1-95.1-95.1zm32.5 95.1v680.3c0 17.9-14.6 32.5-32.5 32.5H512c-17.9 0-32.5-14.6-32.5-32.5V171.9c0-17.9 14.6-32.5 32.5-32.5h42.5c17.9-.1 32.5 14.5 32.5 32.5zm265.2-95.1h-42.5c-52.4 0-95.1 42.6-95.1 95.1v680.3c0 52.4 42.6 95.1 95.1 95.1h42.5c52.4 0 95-42.6 95-95.1V171.9c0-52.5-42.6-95.1-95-95.1zm-75.1 95.1c0-17.9 14.6-32.5 32.5-32.5h42.5c17.9 0 32.5 14.6 32.5 32.5v680.3c0 17.9-14.6 32.5-32.5 32.5h-42.5c-17.9 0-32.5-14.6-32.5-32.5V171.9zm-452.4 81.5-41.8-7.8c-8.3-1.4-16.6.2-23.4 4.9-6.9 4.7-11.5 11.8-13 20.1-1.5 8.2.2 16.5 4.9 23.4 4.7 6.9 11.8 11.5 20.1 13l41.8 7.8c1.9.3 3.8.5 5.7.5 14.8 0 27.9-10.5 30.8-25.5 3.1-16.9-8.1-33.3-25.1-36.4z"/><path fill="#FFF" stroke="currentColor" d="M235.5 56.3 144 32"/></svg>