<svg xmlns="http://www.w3.org/2000/svg" width="200" height="200" class="icon" viewBox="0 0 1024 1024"><path fill="currentColor" d="M896 320H576V64h64v192h256zM791 754l186.4 186.4-40.7 40.7-186.4-186.4L791 754z"/><path fill="currentColor" d="M686.6 844.8c-83.2 0-153.6-70.4-153.6-153.6s70.4-153.6 153.6-153.6S840.2 608 840.2 691.2c-6.4 83.2-70.4 153.6-153.6 153.6zm0-243.2c-51.2 0-89.6 38.4-89.6 89.6s38.4 89.6 89.6 89.6 89.6-38.4 89.6-89.6-44.8-89.6-89.6-89.6z"/><path fill="currentColor" d="M635.9 1017.9H183.3c-76.8 0-123.4-70.4-123.4-153.6V123.1c0-74.6 46.6-129.2 123.4-129.2h441.6l331 249.6v390.4h-64V269.1L605.7 57.9H183.3c-44.8 0-59.4 33.7-59.4 69.4v743.4c0 44.8 14.6 83.2 59.4 83.2h452.6v64z"/><path fill="currentColor" d="M193 185.9h256v64H193v-64zm0 128h320v64H193v-64zm0 128h384v64H193v-64z"/></svg>