<svg xmlns="http://www.w3.org/2000/svg" width="200" height="200" class="icon" viewBox="0 0 1024 1024"><path fill="currentColor" d="M746.88 938.88v42.24a42.88 42.88 0 0 0 42.24-42.24zM149.12 149.12A21.76 21.76 0 0 1 170.88 128V42.88A106.24 106.24 0 0 0 64 149.12zM170.88 128h512V42.88h-512V128zm512 0A21.12 21.12 0 0 1 704 149.12h85.12A106.24 106.24 0 0 0 682.88 42.88V128zM704 149.12v789.76h85.12V149.12zM746.88 896h-576v85.12h576V896zm-576 0a21.76 21.76 0 0 1-21.76-21.12H64a106.24 106.24 0 0 0 106.88 106.24V896zm-21.76-21.12V149.12H64v725.76z"/><path fill="currentColor" d="M746.88 938.88H704a42.88 42.88 0 0 0 42.88 42.24v-42.24zM789.12 512v-85.12A85.12 85.12 0 0 0 704 512zm0 0h85.76v-85.12h-85.76V512zm85.76 0H960a85.12 85.12 0 0 0-85.12-85.12V512zm0 0v362.88H960V512zm0 362.88A21.76 21.76 0 0 1 853.12 896v85.12A106.24 106.24 0 0 0 960 874.88zM853.12 896H746.88v85.12h106.24V896zm-64 42.88V512H704v426.88zM234.88 213.12a42.88 42.88 0 0 0 0 85.76v-85.76zm170.24 85.76a42.88 42.88 0 0 0 0-85.76v85.76zm-170.24 0h170.24v-85.76H234.88v85.76zm0 64A42.24 42.24 0 0 0 192 405.12 42.88 42.88 0 0 0 234.88 448v-85.12zm256 85.12a42.88 42.88 0 0 0 42.24-42.88 42.24 42.24 0 0 0-42.24-42.24V448zm-256 0h256v-85.12h-256V448z"/></svg>