<svg xmlns="http://www.w3.org/2000/svg" width="200" height="200" class="icon" viewBox="0 0 1024 1024"><path fill="currentColor" stroke="currentColor" d="M 116.2 918.4 H 46.9 V 127.6 c 0 -36.3 31 -65.9 69.3 -65.9 h 416.1 c 38.3 0 69.3 29.6 69.3 65.9 v 790.8 h -69.2 V 127.6 H 116.2 v 790.8 z m 762.9 0 h 69.3 V 490 h -69.3 v 428.4 z M 29.6 984.3 c -19.2 0 -34.7 -14.8 -34.7 -33 s 15.6 -32.9 34.7 -32.9 h 918.8 c 19.2 0 34.7 14.7 34.7 32.9 c 0 8.8 -3.7 17.2 -10.2 23.4 c -6.5 6.2 -15.3 9.6 -24.5 9.6 H 29.6 z"/><path fill="currentColor" stroke="currentColor" d="M 1000.8 447.6 c 8.6 3.2 15.4 9.7 19.2 18 c 3.7 8.3 3.9 17.8 0.5 26.3 c -7.1 17.7 -27.1 26.4 -44.9 19.5 L 559.3 350.9 c -17.5 -6.9 -26.1 -26.7 -19.2 -44.1 c 7.1 -17.5 26.7 -26.2 44.4 -19.6 l 416.4 160.4 z M 711.2 558.7 c 19.2 0 34.7 15.4 34.7 34.2 c 0 9.1 -3.7 17.9 -10.2 24.3 c -6.5 6.4 -15.3 10 -24.5 9.9 H 571.8 c -19.1 0 -34.6 -15.4 -34.6 -34.2 c 0 -18.9 15.5 -34.2 34.6 -34.2 h 139.4 z m 0 136.9 c 19.2 0 34.7 15.4 34.7 34.2 c 0 9.2 -3.7 17.9 -10.2 24.4 c -6.5 6.4 -15.3 10 -24.5 9.9 H 571.8 c -19.1 0 -34.6 -15.4 -34.6 -34.2 c 0 -18.9 15.5 -34.2 34.6 -34.2 h 139.4 z M 294.7 547.8 c 0 9.2 -3.7 17.9 -10.2 24.4 c -6.5 6.4 -15.3 9.9 -24.5 9.9 c -19.1 0 -34.6 -15.4 -34.6 -34.2 v -68.5 c 0 -18.9 15.5 -34.2 34.6 -34.2 c 19.2 0 34.7 15.4 34.7 34.2 v 68.5 z m 0 -239.6 c 0 9.2 -3.7 18 -10.2 24.4 c -6.6 6.4 -15.3 9.9 -24.5 9.9 c -19.1 0 -34.6 -15.4 -34.6 -34.2 v -68.5 c 0 -18.9 15.5 -34.2 34.6 -34.2 c 19.2 0 34.7 15.4 34.7 34.2 v 68.5 z m 138.7 0 c -0.1 19.1 -15.6 34.4 -34.6 34.3 c -19.2 0 -34.7 -15.4 -34.7 -34.2 v -68.5 c 0 -18.9 15.5 -34.2 34.7 -34.2 c 19.1 0 34.6 15.4 34.6 34.2 v 68.5 z m 0 239.6 c 0 9.2 -3.7 17.9 -10.2 24.3 c -6.5 6.5 -15.3 10 -24.4 10 c -19.2 0 -34.7 -15.4 -34.7 -34.2 v -68.5 c 0 -18.9 15.5 -34.2 34.7 -34.2 c 19.1 0 34.6 15.4 34.6 34.2 v 68.5 z M 294.7 924.3 h -69.3 V 695.4 h 218.4 v 228.9 h -69.3 V 763.9 h -79.8 v 160.4 z"/></svg>