<?xml version="1.0" standalone="no"?><!DOCTYPE svg PUBLIC "-//W3C//DTD SVG 1.1//EN" "http://www.w3.org/Graphics/SVG/1.1/DTD/svg11.dtd"><svg height="750" node-id="1" sillyvg="true" template-height="750" template-width="750" version="1.1" viewBox="0 0 750 750" width="750" xmlns="http://www.w3.org/2000/svg" xmlns:xlink="http://www.w3.org/1999/xlink"><defs node-id="46"><linearGradient gradientUnits="userSpaceOnUse" id="新建渐变色板_1" node-id="5" spreadMethod="pad" x1="398.03" x2="398.03" y1="311.09" y2="654.32"><stop offset="0" stop-color="#92c1fc" stop-opacity="0.2"></stop><stop offset="0.45" stop-color="#187fc4" stop-opacity="0"></stop></linearGradient><linearGradient gradientUnits="userSpaceOnUse" id="未命名的渐变_82" node-id="8" spreadMethod="pad" x1="300.46" x2="300.46" y1="95.68" y2="177.61"><stop offset="0.03" stop-color="#92c1fc" stop-opacity="0.4"></stop><stop offset="0.25" stop-color="#92c1fc" stop-opacity="0.2"></stop><stop offset="0.8" stop-color="#187fc4" stop-opacity="0"></stop></linearGradient><linearGradient gradientUnits="userSpaceOnUse" id="未命名的渐变_82-2" node-id="12" spreadMethod="pad" x1="168.23" x2="168.23" y1="249.64" y2="315.78"><stop offset="0.03" stop-color="#92c1fc" stop-opacity="0.4"></stop><stop offset="0.25" stop-color="#92c1fc" stop-opacity="0.2"></stop><stop offset="0.8" stop-color="#187fc4" stop-opacity="0"></stop></linearGradient><linearGradient gradientUnits="userSpaceOnUse" id="未命名的渐变_82-3" node-id="13" spreadMethod="pad" x1="605.07" x2="605.07" y1="146.11" y2="210.91"><stop offset="0.03" stop-color="#92c1fc" stop-opacity="0.4"></stop><stop offset="0.25" stop-color="#92c1fc" stop-opacity="0.2"></stop><stop offset="0.8" stop-color="#187fc4" stop-opacity="0"></stop></linearGradient><linearGradient gradientTransform="matrix(1 0.04 -0.04 1 -51.63 10.2)" gradientUnits="userSpaceOnUse" id="未命名的渐变_61" node-id="14" spreadMethod="pad" x1="640.97" x2="590.41" y1="332.76" y2="384.02"><stop offset="0" stop-color="#63a6f9"></stop><stop offset="1" stop-color="#92c1fc"></stop></linearGradient><linearGradient gradientTransform="matrix(0.97377781 0.22750118 -0.22750118 0.97377781 -271.84 30.37)" gradientUnits="userSpaceOnUse" id="未命名的渐变_61-2" node-id="17" spreadMethod="pad" x1="899.46" x2="859.48" y1="134.21" y2="194.13"><stop offset="0" stop-color="#63a6f9"></stop><stop offset="1" stop-color="#92c1fc"></stop></linearGradient></defs><path d="M 687.39 482.71 C 687.39 577.49 557.84 654.33 398.03 654.33 C 238.22 654.33 108.67 577.49 108.67 482.71 C 108.67 387.93 238.22 311.09 398.03 311.09 C 557.84 311.09 687.39 387.93 687.39 482.71 Z" fill="url(#新建渐变色板_1)" fill-rule="nonzero" node-id="91" stroke="none" target-height="343.24002" target-width="578.72003" target-x="108.67" target-y="311.09"></path><path d="M 219.28 133.89 C 223.82 126.20 233.86 120.39 255.28 124.52 C 255.28 124.52 289.49 63.52 343.12 118.97 C 343.12 118.97 375.12 111.33 383.28 135.50 C 386.84 146.21 381.32 157.82 370.77 161.82 C 343.26 172.38 280.18 190.82 227.91 162.88 C 217.47 157.29 213.25 144.12 219.28 133.89 Z" fill="url(#未命名的渐变_82)" fill-rule="nonzero" node-id="93" stroke="none" target-height="127.3" target-width="173.58862" target-x="213.25" target-y="63.52"></path><path d="M 102.69 280.49 C 106.36 274.28 114.46 269.59 131.79 272.92 C 131.79 272.92 159.41 223.66 202.70 268.44 C 202.70 268.44 228.50 262.28 235.13 281.79 C 237.97 290.43 233.51 299.78 225.00 303.00 C 202.79 311.52 151.87 326.37 109.67 303.85 C 101.23 299.38 97.82 288.75 102.69 280.49 Z" fill="url(#未命名的渐变_82-2)" fill-rule="nonzero" node-id="95" stroke="none" target-height="102.70999" target-width="140.1521" target-x="97.82" target-y="223.66"></path><path d="M 537.05 176.33 C 540.85 170.25 549.26 165.66 567.25 168.92 C 567.25 168.92 595.91 120.65 640.84 164.53 C 640.84 164.53 667.61 158.53 674.49 177.61 C 677.49 186.05 672.82 195.23 664.00 198.42 C 641.00 206.78 588.10 221.33 544.31 199.26 C 535.53 194.84 532.00 184.43 537.05 176.33 Z" fill="url(#未命名的渐变_82-3)" fill-rule="nonzero" node-id="97" stroke="none" target-height="100.68" target-width="145.48999" target-x="532" target-y="120.65"></path><path d="M 472.48 435.89 C 472.48 435.89 489.88 380.22 539.39 355.22 L 551.53 363.52 L 545.61 351.58 C 545.61 351.58 581.06 331.84 599.10 347.11 C 609.24 355.68 597.32 384.82 565.46 422.24 L 554.63 419.00 L 561.37 428.75 C 561.37 428.75 540.74 467.53 503.79 469.91 L 486.56 454.70 Z" fill="url(#未命名的渐变_61)" fill-rule="nonzero" node-id="99" stroke="none" target-height="138.07" target-width="136.75998" target-x="472.48" target-y="331.84"></path><path d="M 486.56 454.72 C 485.50 455.72 493.07 444.54 505.76 428.80 C 525.99 403.72 559.88 363.22 599.10 347.11" fill="url(#未命名的渐变_61-2)" fill-rule="nonzero" node-id="101" stroke="#aad0ff" stroke-linecap="round" stroke-width="1.74" target-height="108.610016" target-width="113.599976" target-x="485.5" target-y="347.11"></path><path d="M 544.10 386.54 C 544.10 386.54 563.47 380.30 576.56 394.12" fill="none" node-id="103" stroke="#aad0ff" stroke-linecap="round" stroke-width="1.74" target-height="13.820007" target-width="32.460022" target-x="544.1" target-y="380.3"></path><path d="M 545.61 442.32 C 527.72 421.96 507.21 427.26 507.21 427.26" fill="none" node-id="105" stroke="#aad0ff" stroke-linecap="round" stroke-width="1.74" target-height="20.360016" target-width="38.399994" target-x="507.21" target-y="421.96"></path><path d="M 516.17 416.61 C 516.17 416.61 533.82 392.38 534.31 364.22" fill="none" node-id="107" stroke="#aad0ff" stroke-linecap="round" stroke-width="1.74" target-height="52.389984" target-width="18.140015" target-x="516.17" target-y="364.22"></path><path d="M 628.23 402.70 C 628.23 402.70 599.06 489.34 508.15 481.42 L 492.43 454.55 C 492.43 454.55 616.08 416.84 628.23 402.70 Z" fill="#aad0ff" fill-rule="nonzero" node-id="109" stroke="none" target-height="86.639984" target-width="135.79999" target-x="492.43" target-y="402.7"></path><path d="M 492.43 454.55 C 492.43 454.55 519.83 425.34 571.91 417.25 C 571.91 417.25 612.33 413.47 628.23 402.70 C 628.23 402.70 605.69 426.60 566.57 430.98 C 566.57 430.98 569.94 434.27 594.25 429.80 C 594.25 429.80 556.50 463.57 503.09 464.87 Z" fill="#63a6f9" fill-rule="nonzero" node-id="111" stroke="none" target-height="62.169983" target-width="135.79999" target-x="492.43" target-y="402.7"></path><path d="M 484.37 168.78 L 474.56 168.78 L 474.56 158.26 C 474.56 156.59 473.21 155.24 471.54 155.24 C 469.86 155.24 468.51 156.59 468.51 158.26 L 468.51 168.78 L 458.70 168.78 C 457.48 168.78 456.49 169.77 456.49 170.99 C 456.49 172.21 457.48 173.20 458.70 173.20 L 468.51 173.20 L 468.51 183.72 C 468.51 185.39 469.86 186.74 471.54 186.74 C 473.21 186.74 474.56 185.39 474.56 183.72 L 474.56 173.20 L 484.37 173.20 C 485.59 173.20 486.58 172.21 486.58 170.99 C 486.58 169.77 485.59 168.78 484.37 168.78 Z" fill="#63a6f9" fill-rule="nonzero" node-id="113" stroke="none" target-height="31.509995" target-width="30.089996" target-x="456.49" target-y="155.235"></path><path d="M 231.00 262.91 C 233.30 262.91 235.37 264.29 236.26 266.41 C 237.14 268.54 236.65 270.98 235.03 272.61 C 233.40 274.23 230.96 274.72 228.83 273.84 C 226.71 272.95 225.33 270.88 225.33 268.58 C 225.34 265.45 227.87 262.92 231.00 262.91 M 231.00 255.91 C 225.87 255.91 221.24 258.99 219.28 263.73 C 217.31 268.47 218.40 273.93 222.02 277.56 C 225.65 281.18 231.11 282.27 235.85 280.30 C 240.59 278.34 243.67 273.71 243.67 268.58 C 243.67 261.58 238.00 255.91 231.00 255.91 Z" fill="#63a6f9" fill-rule="nonzero" node-id="115" stroke="none" target-height="26.362106" target-width="26.362106" target-x="217.31194" target-y="255.90596"></path><path d="M 596.51 315.00 C 598.81 315.00 600.88 316.38 601.76 318.50 C 602.65 320.62 602.16 323.07 600.54 324.69 C 598.92 326.32 596.47 326.81 594.35 325.93 C 592.22 325.05 590.84 322.98 590.84 320.68 C 590.84 317.55 593.38 315.01 596.51 315.00 M 596.51 308.00 C 591.38 308.00 586.75 311.08 584.79 315.82 C 582.82 320.56 583.90 326.01 587.53 329.64 C 591.16 333.27 596.61 334.36 601.35 332.40 C 606.09 330.43 609.18 325.81 609.18 320.68 C 609.18 313.68 603.51 308.01 596.51 308.00 Z" fill="#63a6f9" fill-rule="nonzero" node-id="117" stroke="none" target-height="26.361847" target-width="26.357666" target-x="582.8223" target-y="307.99594"></path><path d="M 276.60 210.91 L 494.63 210.91 C 501.26 210.91 506.63 216.28 506.63 222.91 L 506.63 498.08 C 506.63 504.71 501.26 510.08 494.63 510.08 L 276.60 510.08 C 269.97 510.08 264.60 504.71 264.60 498.08 L 264.60 222.91 C 264.60 216.28 269.97 210.91 276.60 210.91 Z" fill="#63a6f9" fill-rule="nonzero" node-id="119" stroke="none" target-height="299.16998" target-width="242.03" target-x="264.6" target-y="210.91"></path><path d="M 281.60 210.91 L 499.63 210.91 C 506.26 210.91 511.63 216.28 511.63 222.91 L 511.63 498.08 C 511.63 504.71 506.26 510.08 499.63 510.08 L 281.60 510.08 C 274.97 510.08 269.60 504.71 269.60 498.08 L 269.60 222.91 C 269.60 216.28 274.97 210.91 281.60 210.91 Z" fill="#92c1fc" fill-rule="nonzero" node-id="121" stroke="none" target-height="299.16998" target-width="242.03" target-x="269.6" target-y="210.91"></path><path d="M 293.60 225.74 L 487.63 225.74 C 494.26 225.74 499.63 231.11 499.63 237.74 L 499.63 483.25 C 499.63 489.88 494.26 495.25 487.63 495.25 L 293.60 495.25 C 286.97 495.25 281.60 489.88 281.60 483.25 L 281.60 237.74 C 281.60 231.11 286.97 225.74 293.60 225.74 Z" fill="#f7f8f8" fill-rule="nonzero" node-id="123" stroke="none" target-height="269.51" target-width="218.03" target-x="281.6" target-y="225.74"></path><path d="M 354.68 197.40 L 424.98 197.40 C 431.61 197.40 436.98 202.77 436.98 209.40 L 436.98 221.56 C 436.98 228.19 431.61 233.56 424.98 233.56 L 354.68 233.56 C 348.05 233.56 342.68 228.19 342.68 221.56 L 342.68 209.40 C 342.68 202.77 348.05 197.40 354.68 197.40 Z" fill="#63a6f9" fill-rule="nonzero" node-id="125" stroke="none" target-height="36.160004" target-width="94.30002" target-x="342.68" target-y="197.4"></path><path d="M 359.68 197.40 L 429.98 197.40 C 436.61 197.40 441.98 202.77 441.98 209.40 L 441.98 221.56 C 441.98 228.19 436.61 233.56 429.98 233.56 L 359.68 233.56 C 353.05 233.56 347.68 228.19 347.68 221.56 L 347.68 209.40 C 347.68 202.77 353.05 197.40 359.68 197.40 Z" fill="#92c1fc" fill-rule="nonzero" node-id="127" stroke="none" target-height="36.160004" target-width="94.30002" target-x="347.68" target-y="197.4"></path><path d="M 313.27 274.63 L 364.18 274.63 C 366.01 274.63 367.49 276.11 367.49 277.94 L 367.49 277.95 C 367.49 279.78 366.01 281.26 364.18 281.26 L 313.27 281.26 C 311.44 281.26 309.96 279.78 309.96 277.95 L 309.96 277.94 C 309.96 276.11 311.44 274.63 313.27 274.63 Z" fill="#63a6f9" fill-rule="nonzero" node-id="129" stroke="none" target-height="6.630005" target-width="57.53" target-x="309.96" target-y="274.63"></path><path d="M 313.97 299.05 L 467.25 299.05 C 468.90 299.05 470.24 300.39 470.24 302.04 L 470.24 302.04 C 470.24 303.68 468.90 305.02 467.25 305.02 L 313.97 305.02 C 312.32 305.02 310.98 303.68 310.98 302.04 L 310.98 302.04 C 310.98 300.39 312.32 299.05 313.97 299.05 Z" fill="#63a6f9" fill-rule="nonzero" node-id="131" stroke="none" target-height="5.970001" target-width="159.25998" target-x="310.98" target-y="299.05"></path><path d="M 313.27 354.63 L 364.18 354.63 C 366.01 354.63 367.49 356.11 367.49 357.94 L 367.49 357.95 C 367.49 359.78 366.01 361.26 364.18 361.26 L 313.27 361.26 C 311.44 361.26 309.96 359.78 309.96 357.95 L 309.96 357.94 C 309.96 356.11 311.44 354.63 313.27 354.63 Z" fill="#63a6f9" fill-rule="nonzero" node-id="133" stroke="none" target-height="6.630005" target-width="57.53" target-x="309.96" target-y="354.63"></path><path d="M 313.97 379.05 L 467.25 379.05 C 468.90 379.05 470.24 380.39 470.24 382.04 L 470.24 382.04 C 470.24 383.68 468.90 385.02 467.25 385.02 L 313.97 385.02 C 312.32 385.02 310.98 383.68 310.98 382.04 L 310.98 382.04 C 310.98 380.39 312.32 379.05 313.97 379.05 Z" fill="#63a6f9" fill-rule="nonzero" node-id="135" stroke="none" target-height="5.970001" target-width="159.25998" target-x="310.98" target-y="379.05"></path><text align="left" editable="true" ellipsis="false" fill="#63a6f9" flags="1" font-family="'Noto Sans CJK SC'" font-size="18" font-stretch="normal" font-style="normal" font-weight="400" height="26.64" letter-spacing="0" node-id="43" stroke="none" target-x="338.73" target-y="529.89" vertical-align="center" width="108" x="338.73" xml:space="preserve" y="550.77">暂无数据呦～</text></svg>