<?xml version="1.0" standalone="no"?><!DOCTYPE svg PUBLIC "-//W3C//DTD SVG 1.1//EN" "http://www.w3.org/Graphics/SVG/1.1/DTD/svg11.dtd"><svg height="750" node-id="1" sillyvg="true" template-height="750" template-width="750" version="1.1" viewBox="0 0 750 750" width="750" xmlns="http://www.w3.org/2000/svg" xmlns:xlink="http://www.w3.org/1999/xlink"><defs node-id="48"><linearGradient gradientUnits="userSpaceOnUse" id="新建渐变色板_1" node-id="5" spreadMethod="pad" x1="379.11" x2="379.11" y1="349.47" y2="692.71"><stop offset="0" stop-color="#92c1fc" stop-opacity="0.2"></stop><stop offset="0.45" stop-color="#187fc4" stop-opacity="0"></stop></linearGradient><linearGradient gradientUnits="userSpaceOnUse" id="未命名的渐变_82" node-id="8" spreadMethod="pad" x1="281.54" x2="281.54" y1="134.06" y2="215.99"><stop offset="0.03" stop-color="#92c1fc" stop-opacity="0.4"></stop><stop offset="0.25" stop-color="#92c1fc" stop-opacity="0.2"></stop><stop offset="0.8" stop-color="#187fc4" stop-opacity="0"></stop></linearGradient><linearGradient gradientUnits="userSpaceOnUse" id="未命名的渐变_82-2" node-id="12" spreadMethod="pad" x1="149.31" x2="149.31" y1="288.03" y2="354.17"><stop offset="0.03" stop-color="#92c1fc" stop-opacity="0.4"></stop><stop offset="0.25" stop-color="#92c1fc" stop-opacity="0.2"></stop><stop offset="0.8" stop-color="#187fc4" stop-opacity="0"></stop></linearGradient><linearGradient gradientUnits="userSpaceOnUse" id="未命名的渐变_82-3" node-id="13" spreadMethod="pad" x1="586.15" x2="586.15" y1="184.5" y2="249.3"><stop offset="0.03" stop-color="#92c1fc" stop-opacity="0.4"></stop><stop offset="0.25" stop-color="#92c1fc" stop-opacity="0.2"></stop><stop offset="0.8" stop-color="#187fc4" stop-opacity="0"></stop></linearGradient><linearGradient gradientTransform="matrix(-1 0.04 0.04 1 957.43 72.17)" gradientUnits="userSpaceOnUse" id="未命名的渐变_61" node-id="14" spreadMethod="pad" x1="673.55" x2="622.99" y1="225.37" y2="276.63"><stop offset="0" stop-color="#63a6f9"></stop><stop offset="1" stop-color="#92c1fc"></stop></linearGradient><linearGradient gradientTransform="matrix(-0.97 0.23 0.23 0.97 927.19 421.18)" gradientUnits="userSpaceOnUse" id="未命名的渐变_61-2" node-id="17" spreadMethod="pad" x1="592.46" x2="552.48" y1="-240.62" y2="-180.71"><stop offset="0" stop-color="#63a6f9"></stop><stop offset="1" stop-color="#92c1fc"></stop></linearGradient><linearGradient gradientUnits="userSpaceOnUse" id="未命名的渐变_21" node-id="18" spreadMethod="pad" x1="450.61" x2="391.81" y1="494.24" y2="392.39"><stop offset="0" stop-color="#aad0ff"></stop><stop offset="0.58" stop-color="#7eb6fb"></stop><stop offset="1" stop-color="#63a6f9"></stop></linearGradient><linearGradient gradientUnits="userSpaceOnUse" id="未命名的渐变_27" node-id="22" spreadMethod="pad" x1="400.29" x2="427.72" y1="466.61" y2="514.12"><stop offset="0" stop-color="#63a6f9"></stop><stop offset="1" stop-color="#63a6f9"></stop></linearGradient><linearGradient gradientUnits="userSpaceOnUse" id="未命名的渐变_21-2" node-id="25" spreadMethod="pad" x1="492.64" x2="357.95" y1="284.97" y2="518.26"><stop offset="0" stop-color="#aad0ff"></stop><stop offset="0.58" stop-color="#7eb6fb"></stop><stop offset="1" stop-color="#63a6f9"></stop></linearGradient></defs><path d="M 668.47 521.09 C 668.47 615.87 538.92 692.71 379.11 692.71 C 219.30 692.71 89.75 615.87 89.75 521.09 C 89.75 426.31 219.30 349.47 379.11 349.47 C 538.92 349.47 668.47 426.31 668.47 521.09 Z" fill="url(#新建渐变色板_1)" fill-rule="nonzero" node-id="115" stroke="none" target-height="343.24002" target-width="578.72" target-x="89.75" target-y="349.47"></path><path d="M 200.36 172.28 C 204.90 164.59 214.94 158.78 236.36 162.91 C 236.36 162.91 270.57 101.91 324.20 157.36 C 324.20 157.36 356.15 149.72 364.36 173.89 C 367.92 184.60 362.40 196.21 351.85 200.21 C 324.33 210.77 261.25 229.21 208.99 201.27 C 198.55 195.67 194.33 182.51 200.36 172.28 Z" fill="url(#未命名的渐变_82)" fill-rule="nonzero" node-id="117" stroke="none" target-height="127.3" target-width="173.58861" target-x="194.33" target-y="101.91"></path><path d="M 83.77 318.88 C 87.44 312.67 95.54 307.98 112.87 311.31 C 112.87 311.31 140.49 262.05 183.78 306.83 C 183.78 306.83 209.58 300.66 216.20 320.18 C 219.07 328.83 214.62 338.20 206.10 341.43 C 183.89 350.00 133.00 364.80 90.77 342.28 C 82.31 337.77 78.90 327.14 83.77 318.88 Z" fill="url(#未命名的渐变_82-2)" fill-rule="nonzero" node-id="119" stroke="none" target-height="102.75" target-width="140.17047" target-x="78.9" target-y="262.05"></path><path d="M 518.13 214.72 C 521.93 208.64 530.34 204.04 548.33 207.31 C 548.33 207.31 576.99 159.04 621.92 202.92 C 621.92 202.92 648.69 196.92 655.57 216.00 C 658.57 224.44 653.90 233.62 645.08 236.81 C 622.03 245.17 569.18 259.72 525.39 237.65 C 516.61 233.23 513.07 222.81 518.13 214.72 Z" fill="url(#未命名的渐变_82-3)" fill-rule="nonzero" node-id="121" stroke="none" target-height="100.68001" target-width="145.5" target-x="513.07" target-y="159.04"></path><path d="M 396.53 391.84 C 396.53 391.84 379.12 336.17 329.61 311.17 L 317.48 319.47 L 323.40 307.53 C 323.40 307.53 287.95 287.79 269.90 303.05 C 259.76 311.63 271.68 340.77 303.54 378.18 L 314.38 375.00 L 307.64 384.74 C 307.64 384.74 328.27 423.53 365.21 425.91 L 382.45 410.70 Z" fill="url(#未命名的渐变_61)" fill-rule="nonzero" node-id="123" stroke="none" target-height="138.12" target-width="136.76999" target-x="259.76" target-y="287.79"></path><path d="M 382.45 410.67 C 383.50 411.72 375.94 400.48 363.25 384.75 C 343.02 359.67 309.12 319.17 269.90 303.05" fill="url(#未命名的渐变_61-2)" fill-rule="nonzero" node-id="125" stroke="#aad0ff" stroke-linecap="round" stroke-width="1.74" target-height="108.67001" target-width="113.600006" target-x="269.9" target-y="303.05"></path><path d="M 324.91 342.48 C 324.91 342.48 305.54 336.25 292.45 350.07" fill="none" node-id="127" stroke="#aad0ff" stroke-linecap="round" stroke-width="1.74" target-height="13.820007" target-width="32.45999" target-x="292.45" target-y="336.25"></path><path d="M 323.40 398.26 C 341.29 377.91 361.80 383.21 361.80 383.21" fill="none" node-id="129" stroke="#aad0ff" stroke-linecap="round" stroke-width="1.74" target-height="20.350006" target-width="38.399994" target-x="323.4" target-y="377.91"></path><path d="M 352.84 372.55 C 352.84 372.55 335.18 348.33 334.69 320.17" fill="none" node-id="131" stroke="#aad0ff" stroke-linecap="round" stroke-width="1.74" target-height="52.379974" target-width="18.149994" target-x="334.69" target-y="320.17"></path><path d="M 240.77 358.65 C 240.77 358.65 269.94 445.29 360.85 437.36 L 376.58 410.49 C 376.58 410.49 252.92 372.79 240.77 358.65 Z" fill="#aad0ff" fill-rule="nonzero" node-id="133" stroke="none" target-height="86.640015" target-width="135.80998" target-x="240.77" target-y="358.65"></path><path d="M 376.58 410.49 C 376.58 410.49 349.17 381.29 297.09 373.20 C 297.09 373.20 256.68 369.42 240.77 358.65 C 240.77 358.65 263.32 382.54 302.44 386.93 C 302.44 386.93 299.07 390.21 274.76 385.75 C 274.76 385.75 312.50 419.52 365.92 420.82 Z" fill="#63a6f9" fill-rule="nonzero" node-id="135" stroke="none" target-height="62.170013" target-width="135.80998" target-x="240.77" target-y="358.65"></path><path d="M 465.45 207.17 L 455.64 207.17 L 455.64 196.65 C 455.64 194.98 454.29 193.63 452.62 193.63 C 450.94 193.63 449.59 194.98 449.59 196.65 L 449.59 207.17 L 439.78 207.17 C 438.56 207.17 437.57 208.16 437.57 209.38 C 437.57 210.60 438.56 211.59 439.78 211.59 L 449.59 211.59 L 449.59 222.11 C 449.59 223.78 450.94 225.13 452.62 225.13 C 454.29 225.13 455.64 223.78 455.64 222.11 L 455.64 211.59 L 465.45 211.59 C 466.67 211.59 467.66 210.60 467.66 209.38 C 467.66 208.16 466.67 207.17 465.45 207.17 Z" fill="#63a6f9" fill-rule="nonzero" node-id="137" stroke="none" target-height="31.509995" target-width="30.089996" target-x="437.57" target-y="193.625"></path><path d="M 212.07 301.30 C 215.21 301.29 217.75 303.83 217.76 306.97 C 217.77 310.10 215.23 312.65 212.10 312.66 C 208.96 312.67 206.41 310.14 206.40 307.00 C 206.41 303.87 208.94 301.34 212.07 301.33 M 212.07 294.33 C 206.94 294.33 202.31 297.41 200.35 302.15 C 198.38 306.89 199.47 312.35 203.09 315.98 C 206.72 319.60 212.18 320.69 216.92 318.72 C 221.66 316.76 224.74 312.13 224.74 307.00 C 224.74 300.00 219.07 294.33 212.07 294.33 Z" fill="#63a6f9" fill-rule="nonzero" node-id="139" stroke="none" target-height="26.362091" target-width="26.362106" target-x="198.38194" target-y="294.32596"></path><path d="M 577.59 353.40 C 579.89 353.40 581.96 354.78 582.85 356.90 C 583.73 359.03 583.24 361.47 581.62 363.10 C 579.99 364.72 577.55 365.21 575.42 364.33 C 573.30 363.44 571.92 361.37 571.92 359.07 C 571.93 355.94 574.46 353.41 577.59 353.40 M 577.59 346.40 C 572.46 346.40 567.83 349.48 565.87 354.22 C 563.90 358.96 564.99 364.42 568.61 368.05 C 572.24 371.67 577.70 372.76 582.44 370.79 C 587.18 368.83 590.26 364.20 590.26 359.07 C 590.26 352.07 584.59 346.40 577.59 346.40 Z" fill="#63a6f9" fill-rule="nonzero" node-id="141" stroke="none" target-height="26.362091" target-width="26.362122" target-x="563.9019" target-y="346.39597"></path><path d="M 364.61 462.35 L 459.98 367.57 L 389.37 531.06 L 364.61 462.35 Z" fill="url(#未命名的渐变_21)" fill-rule="nonzero" node-id="143" stroke="none" target-height="163.48999" target-width="95.370026" target-x="364.61" target-y="367.57"></path><path d="M 411.30 459.57 L 395.31 476.75 L 388.37 530.06 L 444.77 459.57 L 411.30 459.57 Z" fill="url(#未命名的渐变_27)" fill-rule="nonzero" node-id="145" stroke="none" target-height="70.48999" target-width="56.399994" target-x="388.37" target-y="459.57"></path><path d="M 280.09 440.02 L 510.52 291.93 L 486.82 508.14 L 395.31 476.75 L 454.84 372.49 L 367.76 467.86 L 280.09 440.02 Z" fill="url(#未命名的渐变_21-2)" fill-rule="nonzero" node-id="147" stroke="none" target-height="216.21002" target-width="230.43" target-x="280.09" target-y="291.93"></path><text align="left" editable="true" ellipsis="false" fill="#63a6f9" flags="1" font-family="'Noto Sans CJK SC'" font-size="18" font-stretch="normal" font-style="normal" font-weight="400" height="26.64" letter-spacing="0" node-id="45" stroke="none" target-x="342.6" target-y="554.91" vertical-align="center" width="108" x="342.6" xml:space="preserve" y="575.79">没有推送哦～</text></svg>