<?xml version="1.0" standalone="no"?><!DOCTYPE svg PUBLIC "-//W3C//DTD SVG 1.1//EN" "http://www.w3.org/Graphics/SVG/1.1/DTD/svg11.dtd"><svg t="1706601265925" class="icon" viewBox="0 0 1024 1024" version="1.1" xmlns="http://www.w3.org/2000/svg" p-id="18996" xmlns:xlink="http://www.w3.org/1999/xlink" width="200" height="200"><path d="M760.6272 993.28H263.3728c-5.3248 0-10.24-3.8912-12.9024-8.3968L2.048 556.8512c-2.6624-4.7104-2.6624-10.6496 0-15.1552L250.4704 114.0736c2.6624-4.5056 7.5776-7.5776 12.9024-7.5776h497.0496c5.3248 0 10.24 2.8672 12.9024 7.3728L1021.952 541.4912c2.6624 4.7104 2.6624 10.4448 0 14.9504L773.5296 984.8832c-2.6624 4.5056-7.5776 8.3968-12.9024 8.3968z m-488.6528-30.72h479.8464l239.8208-412.672L752.0256 137.216H271.9744L32.1536 549.888 271.9744 962.56z" fill="#ffffff" p-id="18997"></path><path d="M598.8352 801.5872H366.7968c-20.48 0-74.5472 0-74.5472-54.6816V364.1344c0-41.1648 33.3824-74.5472 74.5472-74.5472H559.104c41.1648 0 74.5472 33.3824 74.5472 74.5472v390.7584c0.4096 1.8432 1.024 3.072 2.048 4.7104 5.5296 10.4448 5.7344 20.0704 0.6144 28.4672-7.9872 13.5168-21.0944 13.5168-37.4784 13.5168zM342.2208 749.568c2.2528 1.024 8.3968 2.2528 24.576 2.2528h217.088V364.1344c0-13.7216-11.0592-24.7808-24.7808-24.7808h-192.3072c-13.7216 0-24.7808 11.0592-24.7808 24.7808v382.7712c0 1.2288 0.2048 2.048 0.2048 2.6624z" fill="#ffffff" p-id="18998"></path><path d="M673.5872 801.5872h-83.3536v-49.7664h83.3536c13.7216 0 24.7808-11.0592 24.7808-24.7808V438.6816c0-13.7216-11.0592-24.7808-24.7808-24.7808h-83.3536v-49.7664h83.3536c41.1648 0 74.5472 33.3824 74.5472 74.5472V727.04c0 40.96-33.3824 74.5472-74.5472 74.5472z" fill="#ffffff" p-id="18999"></path><path d="M780.4928 802.816H243.5072c-13.7216 0-24.7808-11.8784-24.7808-25.6s11.0592-25.6 24.7808-25.6H780.288c13.7216 0 24.7808 11.8784 24.7808 25.6s-10.8544 25.6-24.576 25.6zM422.5024 464.896h-19.8656c-13.7216 0-24.7808-10.8544-24.7808-24.576s11.0592-24.576 24.7808-24.576h19.8656c13.7216 0 24.7808 10.8544 24.7808 24.576s-11.0592 24.576-24.7808 24.576zM522.0352 464.896h-19.8656c-13.7216 0-24.7808-10.8544-24.7808-24.576s11.0592-24.576 24.7808-24.576h19.8656c13.7216 0 24.7808 10.8544 24.7808 24.576s-11.0592 24.576-24.7808 24.576zM422.5024 544.768h-19.8656c-13.7216 0-24.7808-10.8544-24.7808-24.576s11.0592-24.576 24.7808-24.576h19.8656c13.7216 0 24.7808 10.8544 24.7808 24.576s-11.0592 24.576-24.7808 24.576zM522.0352 544.768h-19.8656c-13.7216 0-24.7808-10.8544-24.7808-24.576s11.0592-24.576 24.7808-24.576h19.8656c13.7216 0 24.7808 10.8544 24.7808 24.576s-11.0592 24.576-24.7808 24.576zM422.5024 622.592h-19.8656c-13.7216 0-24.7808-10.8544-24.7808-24.576s11.0592-24.576 24.7808-24.576h19.8656c13.7216 0 24.7808 10.8544 24.7808 24.576s-11.0592 24.576-24.7808 24.576zM522.0352 622.592h-19.8656c-13.7216 0-24.7808-10.8544-24.7808-24.576s11.0592-24.576 24.7808-24.576h19.8656c13.7216 0 24.7808 10.8544 24.7808 24.576s-11.0592 24.576-24.7808 24.576z" fill="#ffffff" p-id="19000"></path></svg>