<?xml version="1.0" standalone="no"?><!DOCTYPE svg PUBLIC "-//W3C//DTD SVG 1.1//EN" "http://www.w3.org/Graphics/SVG/1.1/DTD/svg11.dtd"><svg t="1701248041502" class="icon" viewBox="0 0 1024 1024" version="1.1" xmlns="http://www.w3.org/2000/svg" p-id="2564" xmlns:xlink="http://www.w3.org/1999/xlink" width="200" height="200"><path d="M512 56.90709333c251.22133333 0 455.09290667 203.87157333 455.09290667 455.09290667S763.22133333 967.09290667 512 967.09290667A455.25674667 455.25674667 0 0 1 56.90709333 512C56.90709333 260.77866667 260.77866667 56.90709333 512 56.90709333z m-271.9744 610.57706667c66.79210667 99.66933333 167.1168 163.07541333 279.23797333 163.07541333 112.17578667 0 212.50048-63.35146667 279.29258667-163.07541333a408.12544 408.12544 0 0 0-279.29258667-109.99125333 408.12544 408.12544 0 0 0-279.29258666 109.99125333zM512 466.50709333a136.53333333 136.53333333 0 1 0 0-273.06666666 136.53333333 136.53333333 0 0 0 0 273.06666666z" fill="#fff" p-id="2565"></path></svg>
